HIERARCHY
ROOT Hips
{
	OFFSET 55.310501 45.591206 43.872097
	CHANNELS 6 Xposition Yposition Zposition Zrotation Xrotation Yrotation
	JOINT Chest
	{
		OFFSET -0.153500 1.163101 7.852402
		CHANNELS 6 Xposition Yposition Zposition Zrotation Xrotation Yrotation
		JOINT Chest2
		{
			OFFSET 0.000000 0.000000 3.343300
			CHANNELS 6 Xposition Yposition Zposition Zrotation Xrotation Yrotation
			JOINT Neck
			{
				OFFSET 0.000000 0.000000 7.785500
				CHANNELS 6 Xposition Yposition Zposition Zrotation Xrotation Yrotation
				JOINT Head
				{
					OFFSET 0.000000 0.000000 2.173901
					CHANNELS 6 Xposition Yposition Zposition Zrotation Xrotation Yrotation
					End Site
					{
						OFFSET 0.000000 0.000000 10.528198
					}
				}
			}
			JOINT LeftCollar
			{
				OFFSET 2.676300 -1.652401 4.938301
				CHANNELS 6 Xposition Yposition Zposition Zrotation Xrotation Yrotation
				JOINT LeftShoulder
				{
					OFFSET 4.299000 0.000000 0.000000
					CHANNELS 6 Xposition Yposition Zposition Zrotation Xrotation Yrotation
					JOINT LeftElbow
					{
						OFFSET 0.000000 0.000000 -10.245102
						CHANNELS 6 Xposition Yposition Zposition Zrotation Xrotation Yrotation
						JOINT LeftWrist
						{
							OFFSET 0.000000 0.000000 -12.703300
							CHANNELS 6 Xposition Yposition Zposition Zrotation Xrotation Yrotation
							End Site
							{
								OFFSET 0.000000 0.000000 -2.173901
							}
						}
					}
				}
			}
			JOINT RightCollar
			{
				OFFSET -2.534599 -1.686401 5.195000
				CHANNELS 6 Xposition Yposition Zposition Zrotation Xrotation Yrotation
				JOINT RightShoulder
				{
					OFFSET -4.144100 0.000000 0.000000
					CHANNELS 6 Xposition Yposition Zposition Zrotation Xrotation Yrotation
					JOINT RightElbow
					{
						OFFSET 0.000000 0.000000 -10.116501
						CHANNELS 6 Xposition Yposition Zposition Zrotation Xrotation Yrotation
						JOINT RightWrist
						{
							OFFSET 0.000000 0.000000 -12.937801
							CHANNELS 6 Xposition Yposition Zposition Zrotation Xrotation Yrotation
							End Site
							{
								OFFSET 0.000000 0.000000 -2.173901
							}
						}
					}
				}
			}
		}
	}
	JOINT LeftHip
	{
		OFFSET 2.175598 0.064499 -2.662899
		CHANNELS 6 Xposition Yposition Zposition Zrotation Xrotation Yrotation
		JOINT LeftKnee
		{
			OFFSET 0.000000 -0.000004 -18.585800
			CHANNELS 6 Xposition Yposition Zposition Zrotation Xrotation Yrotation
			JOINT LeftAnkle
			{
				OFFSET 0.000000 0.000000 -18.979500
				CHANNELS 6 Xposition Yposition Zposition Zrotation Xrotation Yrotation
				End Site
				{
					OFFSET 0.000000 -9.264000 0.000000
				}
			}
		}
	}
	JOINT RightHip
	{
		OFFSET -2.092400 -0.058102 -2.581200
		CHANNELS 6 Xposition Yposition Zposition Zrotation Xrotation Yrotation
		JOINT RightKnee
		{
			OFFSET 0.000000 -0.000004 -18.665001
			CHANNELS 6 Xposition Yposition Zposition Zrotation Xrotation Yrotation
			JOINT RightAnkle
			{
				OFFSET 0.000000 0.000000 -18.566601
				CHANNELS 6 Xposition Yposition Zposition Zrotation Xrotation Yrotation
				End Site
				{
					OFFSET 0.000000 -8.497601 0.000000
				}
			}
		}
	}
}
MOTION
Frames: 7
Frame Time: 0.041667
46.132500 12.610508 41.307590 2603.468561 2.942141 -9.583349 -0.153498 1.163101 7.852403 10.462019 1.508384 -4.486807 -0.000004 -0.000001 3.343306 -0.903539 -5.866796 0.003940 -0.000004 -0.000009 7.785497 -51.257339 -12.967821 5.021513 -0.000004 -0.000001 2.173900 -9.078011 -3.830269 -11.766299 2.676296 -1.652403 4.938302 8.807120 -0.140070 -9.557655 4.299000 -0.000004 0.000006 -384.392528 -31.776612 229.813845 -0.000012 -0.000013 -10.245112 60.610245 697.052278 370.434927 -0.000003 0.000006 -12.703304 1027.161987 -203.877978 556.706644 -2.534595 -1.686403 5.195000 15.795437 13.004842 -4.542247 -4.144101 -0.000004 0.000001 228.640296 187.792800 -79.454703 0.000003 -0.000001 -10.116508 -681.983952 -345.731335 -282.642845 0.000008 -0.000006 -12.937801 -1379.918855 -35.561663 50.191806 2.175593 0.064494 -2.662894 -1062.602582 -21.548024 9.603087 -0.000005 -0.000002 -18.585798 453.585650 -231.872027 -105.858930 -0.000001 -0.000001 -18.979496 746.143908 12.375832 -704.161194 -2.092400 -0.058100 -2.581192 1392.307179 -32.952941 -13.182919 0.000010 -0.000006 -18.665016 -1232.045915 116.187310 -899.337674 -0.000001 -0.000004 -18.566601 707.183471 -1.301951 -10.187167
46.435101 12.835808 41.363194 2599.132866 3.510933 -9.746713 -0.153501 1.163110 7.852406 10.123853 0.833555 -4.983686 0.000003 0.000003 3.343305 -0.670314 -6.005212 -0.008664 0.000007 0.000006 7.785500 -51.821608 -12.238092 4.416624 -0.000008 -0.000000 2.173897 -9.252921 -3.948799 -11.656365 2.676295 -1.652392 4.938302 8.300299 0.582574 -9.225438 4.299009 -0.000002 0.000000 -383.316801 -31.052653 229.796852 -0.000008 -0.000008 -10.245103 56.357766 697.519736 369.122602 -0.000001 -0.000008 -12.703297 1025.740871 -203.160452 557.007610 -2.534596 -1.686394 5.194998 15.296564 13.190641 -4.995411 -4.144099 -0.000001 -0.000004 229.236011 185.012517 -76.999537 0.000001 0.000002 -10.116506 -679.874025 -339.520863 -283.844138 0.000005 0.000003 -12.937817 -1384.424048 -31.205280 58.607073 2.175594 0.064507 -2.662901 -1060.799958 -23.096220 11.770087 -0.000002 -0.000009 -18.585802 447.475800 -229.648281 -102.555195 -0.000004 0.000000 -18.979500 748.037947 10.716060 -701.021984 -2.092402 -0.058098 -2.581194 1391.102224 -33.316457 -13.995966 0.000009 -0.000002 -18.665010 -1227.211015 115.967077 -902.014343 0.000000 -0.000002 -18.566608 708.779385 -1.305935 -8.029045
46.761406 13.087799 41.414497 2594.621663 4.170916 -9.909694 -0.153498 1.163097 7.852404 10.795627 0.290357 -5.634307 0.000000 0.000005 3.343303 -1.045591 -6.271484 -0.019885 0.000000 0.000008 7.785500 -52.734607 -11.426855 3.799083 -0.000004 0.000005 2.173899 -9.323824 -4.061246 -11.772142 2.676296 -1.652392 4.938296 8.052429 1.261692 -9.834171 4.299006 -0.000010 0.000000 -381.777085 -30.432676 231.158846 0.000001 -0.000008 -10.245095 56.558577 698.815779 369.546839 -0.000001 -0.000004 -12.703285 1020.159349 -202.227517 556.745112 -2.534605 -1.686389 5.194997 14.231491 12.198484 -5.669624 -4.144102 -0.000002 -0.000003 229.677296 181.483700 -75.125305 0.000005 0.000008 -10.116505 -675.001368 -332.410718 -285.889152 0.000002 0.000009 -12.937811 -1389.844486 -24.439674 65.603994 2.175598 0.064492 -2.662899 -1059.120278 -24.543639 14.045417 -0.000001 -0.000001 -18.585804 443.314849 -228.109248 -100.801250 0.000000 -0.000001 -18.979502 750.652816 8.730353 -700.030951 -2.092394 -0.058105 -2.581202 1389.497075 -33.509543 -15.033849 0.000010 -0.000001 -18.665007 -1222.878599 116.106604 -903.695335 0.000003 -0.000007 -18.566601 710.716864 -1.055920 -5.885630
47.106400 13.357018 41.476894 2589.694310 4.853282 -10.477621 -0.153503 1.163097 7.852408 10.894065 0.345363 -5.942752 0.000005 0.000003 3.343310 -0.798699 -6.586147 -0.006965 0.000003 0.000005 7.785505 -53.161828 -10.661862 3.080652 -0.000006 0.000005 2.173907 -9.408652 -4.164813 -11.417919 2.676298 -1.652397 4.938301 8.365040 1.212031 -10.317407 4.299004 -0.000004 0.000004 -380.378180 -28.943132 232.780169 -0.000006 0.000000 -10.245108 49.026357 699.415305 366.759848 0.000004 0.000000 -12.703297 1022.327743 -201.731208 557.623911 -2.534596 -1.686396 5.195004 13.699454 12.051502 -6.318029 -4.144104 0.000006 0.000002 230.022849 178.320489 -72.605696 0.000000 0.000006 -10.116501 -667.402755 -324.122256 -289.136333 0.000002 -0.000003 -12.937814 -1396.746692 -18.788684 70.314701 2.175595 0.064498 -2.662891 -1057.162910 -25.615168 16.678962 -0.000005 -0.000015 -18.585796 441.185688 -228.009555 -100.559728 -0.000001 0.000002 -18.979502 753.085238 6.667128 -700.104881 -2.092400 -0.058102 -2.581202 1388.214966 -33.742282 -15.723106 0.000002 0.000003 -18.665009 -1218.215711 116.689547 -905.218522 0.000002 -0.000008 -18.566603 712.627022 -0.646903 -4.176440
47.487705 13.656811 41.546299 2584.379657 5.724011 -11.339529 -0.153505 1.163103 7.852406 11.303793 0.657841 -5.938871 0.000002 0.000003 3.343301 -0.503121 -6.999615 0.016308 -0.000007 0.000004 7.785498 -53.470436 -9.738925 2.255419 -0.000007 0.000001 2.173914 -9.377937 -4.306780 -11.275501 2.676291 -1.652393 4.938295 8.181042 1.512014 -11.383172 4.299002 -0.000008 0.000006 -377.847322 -27.742393 234.973479 -0.000004 -0.000010 -10.245104 45.899336 700.985374 365.975961 0.000005 -0.000002 -12.703295 1020.453649 -201.161038 558.234913 -2.534600 -1.686401 5.195001 13.274149 12.000807 -7.143696 -4.144104 -0.000007 0.000003 230.664286 175.445894 -70.164013 -0.000008 -0.000002 -10.116505 -662.530207 -320.307540 -291.580120 -0.000004 0.000003 -12.937805 -1399.326427 -9.282446 73.272241 2.175594 0.064494 -2.662893 -1054.917909 -26.544552 19.573024 -0.000008 -0.000010 -18.585804 436.331827 -223.156159 -97.478001 0.000006 -0.000005 -18.979504 759.825268 -3.139852 -687.715082 -2.092405 -0.058105 -2.581203 1386.464908 -34.184909 -16.824284 0.000003 -0.000004 -18.664997 -1211.488466 117.125655 -907.750172 0.000002 0.000003 -18.566603 714.131139 -0.915628 -3.641927
47.882008 13.984104 41.619305 2578.976705 6.836103 -12.428888 -0.153500 1.163102 7.852409 12.213145 1.023629 -6.005312 0.000003 -0.000002 3.343299 -0.236787 -7.324864 0.047176 -0.000001 0.000001 7.785507 -53.794942 -9.244456 1.924413 0.000003 0.000004 2.173902 -9.312008 -4.346686 -11.449467 2.676293 -1.652391 4.938302 7.352302 2.868661 -10.317136 4.299009 -0.000008 0.000000 -375.576885 -26.348416 235.330015 -0.000001 -0.000001 -10.245108 43.431141 702.956622 365.132323 -0.000014 0.000000 -12.703302 1019.386500 -200.791907 557.987660 -2.534601 -1.686398 5.195003 14.688706 13.371760 -9.724955 -4.144104 -0.000005 -0.000004 228.700087 172.999116 -65.047204 0.000002 -0.000004 -10.116502 -657.828305 -317.293433 -293.737230 0.000003 -0.000001 -12.937819 -1402.465582 4.569877 73.180969 2.175596 0.064493 -2.662889 -1052.471718 -27.482782 22.879544 -0.000008 -0.000007 -18.585798 438.443421 -228.541668 -100.179238 -0.000006 -0.000011 -18.979498 755.935175 -2.402362 -694.484674 -2.092394 -0.058107 -2.581203 1385.121820 -34.551683 -17.817114 0.000009 0.000002 -18.665005 -1206.620126 118.221081 -908.115287 0.000003 -0.000003 -18.566599 715.710006 -0.791303 -3.932434
48.312508 14.330614 41.666000 2573.309068 8.344589 -13.542436 -0.153499 1.163101 7.852407 13.708635 1.286884 -6.011810 0.000006 0.000004 3.343302 -0.428401 -7.520216 0.040002 -0.000006 -0.000008 7.785506 -53.681298 -8.964657 1.510853 0.000003 -0.000002 2.173900 -9.556778 -4.475201 -11.314977 2.676296 -1.652407 4.938305 6.711451 4.869125 -10.596153 4.298994 0.000005 -0.000008 -371.779272 -25.297113 237.481853 0.000002 -0.000014 -10.245108 42.175568 705.294896 364.638364 -0.000011 -0.000006 -12.703298 1017.942652 -200.637367 558.187429 -2.534599 -1.686406 5.195006 14.720705 13.358052 -10.594860 -4.144096 -0.000004 -0.000000 228.364397 170.429216 -61.992846 0.000002 0.000001 -10.116500 -653.430538 -315.102909 -295.900952 -0.000002 0.000006 -12.937799 -1405.057885 20.339682 69.880874 2.175601 0.064501 -2.662899 -1049.572439 -28.634965 26.461546 -0.000008 -0.000021 -18.585800 439.301430 -227.866544 -102.771725 0.000005 -0.000003 -18.979500 757.344981 -1.682811 -700.679928 -2.092396 -0.058104 -2.581200 1384.693649 -35.164850 -18.708785 0.000000 -0.000001 -18.665009 -1204.971154 119.520620 -905.902524 0.000002 -0.000002 -18.566599 717.709448 -0.379928 -4.158807
